<?xml version="1.0" encoding="utf-8"?>
<svg contentscripttype="text/ecmascript" contentstyletype="text/css" enable-background="new 0 0 2048 2048" height="2048px" id="Layer_1" preserveAspectRatio="xMidYMid meet" version="1.1" viewBox="0.0 0 1536.0 2048" width="1536.0px" zoomAndPan="magnify" xmlns="http://www.w3.org/2000/svg">
  <path d="M1536,1024c0,167.333-48.833,317.833-146.5,451.5S1165.667,1701.667,1011,1753c-18,3.333-31.167,1-39.5-7s-12.5-18-12.5-30  v-211c0-64.667-17.333-112-52-142c38-4,72.167-10,102.5-18c30.333-8,61.667-21,94-39s59.333-40.167,81-66.5s39.333-61.333,53-105  c13.667-43.667,20.5-93.833,20.5-150.5c0-80.667-26.333-149.333-79-206c24.667-60.667,22-128.667-8-204  c-18.667-6-45.667-2.333-81,11s-66,28-92,44l-38,24c-62-17.333-126-26-192-26s-130,8.667-192,26  c-10.667-7.333-24.833-16.333-42.5-27S488,602.5,450,587.5S383.333,568,364,574c-29.333,75.333-31.667,143.333-7,204  c-52.667,56.667-79,125.333-79,206c0,56.667,6.833,106.667,20.5,150c13.667,43.333,31.167,78.333,52.5,105s48.167,49,80.5,67  s63.667,31,94,39c30.333,8,64.5,14,102.5,18c-26.667,24-43,58.333-49,103c-14,6.667-29,11.667-45,15s-35,5-57,5  s-43.833-7.167-65.5-21.5s-40.167-35.167-55.5-62.5c-12.667-21.333-28.833-38.667-48.5-52s-36.167-21.333-49.5-24l-20-3  c-14,0-23.667,1.5-29,4.5s-7,6.833-5,11.5s5,9.333,9,14s8.333,8.667,13,12l7,5c14.667,6.667,29.167,19.333,43.5,38  s24.833,35.667,31.5,51l10,23c8.667,25.333,23.333,45.833,44,61.5s43,25.667,67,30s47.167,6.667,69.5,7  c22.333,0.333,40.833-0.833,55.5-3.5l23-4c0,25.333,0.167,55,0.5,89s0.5,52,0.5,54c0,12-4.333,22-13,30s-22,10.333-40,7  c-154.667-51.333-280.833-143.833-378.5-277.5S0,1191.333,0,1024c0-139.333,34.333-267.833,103-385.5S264.833,427.667,382.5,359  S628.667,256,768,256s267.833,34.333,385.5,103s210.833,161.833,279.5,279.5S1536,884.667,1536,1024z" style="fill: rgb(129, 235, 197);"/>
</svg>